<?xml version="1.0" encoding="UTF-8"?>
<svg id="Layer_1" data-name="Layer 1" xmlns="http://www.w3.org/2000/svg" viewBox="0 0 1734.86 604.03">
  <defs>
    <style>
      .cls-1 {
        fill: #085752;
      }

      .cls-2 {
        fill: #0b7c6b;
      }
    </style>
  </defs>
  <g>
    <polygon class="cls-2" points="387.68 34.61 361.82 34.61 114.84 284.51 387.68 34.61"/>
    <polygon class="cls-2" points="426.56 34.61 398.53 34.61 149.05 284.51 426.56 34.61"/>
    <path class="cls-1" d="m431.88,500.84c-34,0-61.54-27.55-61.54-61.54v-161.08c0-34,27.55-61.54,61.54-61.54h339.41l-134.23-43.44-21.56-22.26-60.53-62.55L470.69,1.4,138.66,330.71H50.86L360.31,23.82,333.47,0,0,330.71l24.94,25.76,43.01,44.41,196.67,203.16h137.03c-2.33-2.25-4.62-4.55-6.95-6.8-25.95-25.29-51.32-51.13-76.54-77.16-25.02-26.15-49.92-52.45-74.29-79.3-24.4-26.81-48.41-53.93-71.49-82.02,27.24,24.09,53.5,49.07,79.37,74.44,25.91,25.29,51.28,51.17,76.54,77.12,25.02,26.19,49.96,52.49,74.28,79.34,4.35,4.78,8.7,9.56,13.02,14.38h228.76l65.78-65.43,128.72-37.76h-406.97Z"/>
  </g>
  <g>
    <path class="cls-2" d="m419.19,442.2v-170.76c0-2.75,1.37-4.12,4.11-4.12h61.27c12.04,0,21.21,3.12,27.52,9.36,6.31,6.24,9.46,15.4,9.46,27.46v34.58c0,4.66-1.51,8.65-4.52,11.98-3.02,3.33-6.83,5.37-11.46,6.12v.5c4.62.75,8.44,2.81,11.46,6.18,3.01,3.37,4.52,7.39,4.52,12.05v33.95c0,12.07-3.16,21.22-9.46,27.46-6.31,6.24-15.48,9.36-27.52,9.36h-61.27c-1.25,0-2.24-.38-2.99-1.12-.75-.75-1.12-1.75-1.12-3Zm31.71-101.98h28.21c3.33,0,5.87-.87,7.61-2.62,1.75-1.75,2.62-4.2,2.62-7.36v-20.47c0-6.82-3.41-10.23-10.24-10.23h-28.21v40.69Zm0,73.9h28.21c6.82,0,10.24-3.41,10.24-10.24v-19.72c0-6.82-3.41-10.23-10.24-10.23h-28.21v40.19Z"/>
    <path class="cls-2" d="m562.6,409.5v-105.35c0-12.07,3.12-21.22,9.36-27.46,6.24-6.24,15.39-9.36,27.46-9.36h28.71c12.07,0,21.22,3.12,27.46,9.36,6.24,6.24,9.36,15.4,9.36,27.46v105.35c0,12.07-3.12,21.22-9.36,27.46-6.24,6.24-15.4,9.36-27.46,9.36h-28.71c-12.07,0-21.22-3.12-27.46-9.36-6.24-6.24-9.36-15.39-9.36-27.46Zm33.33-6.37c0,6.82,3.41,10.23,10.24,10.23h16.35c6.82,0,10.24-3.41,10.24-10.23v-92.5c0-6.82-3.41-10.24-10.24-10.24h-16.35c-6.82,0-10.24,3.41-10.24,10.24v92.5Z"/>
    <path class="cls-2" d="m705.76,409.5v-105.35c0-12.07,3.12-21.22,9.36-27.46,6.24-6.24,15.4-9.36,27.46-9.36h28.71c12.07,0,21.22,3.12,27.46,9.36,6.24,6.24,9.36,15.4,9.36,27.46v105.35c0,12.07-3.12,21.22-9.36,27.46-6.24,6.24-15.4,9.36-27.46,9.36h-28.71c-12.07,0-21.22-3.12-27.46-9.36-6.24-6.24-9.36-15.39-9.36-27.46Zm33.33-6.37c0,6.82,3.41,10.23,10.23,10.23h16.35c6.82,0,10.23-3.41,10.23-10.23v-92.5c0-6.82-3.41-10.24-10.23-10.24h-16.35c-6.82,0-10.23,3.41-10.23,10.24v92.5Z"/>
    <path class="cls-2" d="m848.92,441.2v-168.77c0-3.41,1.71-5.12,5.12-5.12h24.59c3.41,0,5.12,1.71,5.12,5.12v66.53l39.32-67.78c1.41-2.58,3.37-3.87,5.87-3.87h26.84c1.91,0,3.25.62,4,1.87.75,1.25.62,2.7-.38,4.37l-43.44,76.39,46.31,90.5c.5.92.75,1.75.75,2.5,0,.58-.17,1.12-.5,1.62-.67,1.17-2.04,1.75-4.12,1.75h-27.09c-2.66,0-4.62-1.29-5.87-3.87l-32.2-63.16-9.49,18.23v43.69c0,3.41-1.71,5.12-5.12,5.12h-24.59c-3.41,0-5.12-1.7-5.12-5.12Z"/>
    <path class="cls-2" d="m1080.45,409.5v-16.6c0-2.75,1.37-4.12,4.12-4.12h25.84c2.75,0,4.12,1.37,4.12,4.12v10.73c0,6.82,3.41,10.24,10.24,10.24h13.73c6.82,0,10.24-3.41,10.24-10.24v-25.84l-61.29-19.97c-4.66-1.5-6.99-4.62-6.99-9.36v-44.31c0-11.98,3.16-21.12,9.47-27.4,6.31-6.28,15.4-9.42,27.27-9.42h28.64c12.04,0,21.17,3.12,27.39,9.36,6.23,6.24,9.34,15.4,9.34,27.46v16.85c0,2.75-1.36,4.12-4.09,4.12h-25.65c-1.24,0-2.23-.38-2.98-1.13-.74-.75-1.11-1.75-1.11-2.99v-10.74c0-6.74-3.41-10.11-10.24-10.11h-13.98c-3.25,0-5.76.88-7.55,2.64-1.79,1.76-2.68,4.27-2.68,7.53v21.98l61.73,19.85c4.37,1.58,6.55,4.73,6.55,9.47v47.96c0,12.04-3.11,21.18-9.34,27.41-6.22,6.23-15.36,9.34-27.39,9.34h-28.64c-11.87,0-20.96-3.14-27.27-9.42-6.31-6.28-9.47-15.42-9.47-27.4Z"/>
    <path class="cls-2" d="m1210.88,271.44c0-1.25.37-2.25,1.12-3s1.75-1.12,2.99-1.12h94.12c2.75,0,4.12,1.37,4.12,4.12v25.59c0,2.75-1.37,4.12-4.12,4.12h-29.71v141.05c0,2.75-1.33,4.12-3.99,4.12h-26.59c-2.75,0-4.12-1.37-4.12-4.12v-141.05h-29.71c-1.25,0-2.25-.38-2.99-1.12s-1.12-1.75-1.12-3v-25.59Z"/>
    <path class="cls-2" d="m1346.43,409.5v-105.35c0-12.07,3.12-21.22,9.36-27.46,6.24-6.24,15.4-9.36,27.46-9.36h28.71c12.07,0,21.22,3.12,27.46,9.36s9.36,15.4,9.36,27.46v105.35c0,12.07-3.12,21.22-9.36,27.46s-15.4,9.36-27.46,9.36h-28.71c-12.07,0-21.22-3.12-27.46-9.36-6.24-6.24-9.36-15.39-9.36-27.46Zm33.33-6.37c0,6.82,3.41,10.23,10.23,10.23h16.35c6.82,0,10.23-3.41,10.23-10.23v-92.5c0-6.82-3.41-10.24-10.23-10.24h-16.35c-6.82,0-10.23,3.41-10.23,10.24v92.5Z"/>
    <path class="cls-2" d="m1489.59,442.2v-170.76c0-1.25.38-2.25,1.12-3,.75-.75,1.75-1.12,3-1.12h61.41c12.07,0,21.22,3.12,27.46,9.36,6.24,6.24,9.36,15.4,9.36,27.46v51.43c0,14.9-4.79,25.3-14.36,31.21l13.23,54.92c.75,3.08-.42,4.62-3.5,4.62h-25.09c-2.42,0-3.87-1.2-4.37-3.62l-12.23-50.31h-22.72v49.81c0,1.25-.38,2.25-1.12,3-.75.75-1.75,1.12-3,1.12h-25.09c-1.25,0-2.25-.38-3-1.12-.75-.75-1.12-1.75-1.12-3Zm33.33-82.76h25.47c6.82,0,10.23-3.41,10.23-10.23v-38.57c0-6.82-3.41-10.24-10.23-10.24h-25.47v59.04Z"/>
    <path class="cls-2" d="m1632.75,442.2v-170.76c0-1.25.35-2.25,1.06-3,.71-.75,1.64-1.12,2.81-1.12h94.12c2.75,0,4.12,1.37,4.12,4.12v25.59c0,2.91-1.37,4.37-4.12,4.37h-63.16v39.32h48.06c2.75,0,4.12,1.46,4.12,4.37v25.34c0,2.91-1.37,4.37-4.12,4.37h-48.06v37.82h63.16c1.58,0,2.66.29,3.25.87.58.58.87,1.62.87,3.12v25.59c0,2.75-1.37,4.12-4.12,4.12h-94.12c-1.17,0-2.1-.38-2.81-1.12-.71-.75-1.06-1.75-1.06-3Z"/>
  </g>
</svg>